<svg width="29" height="28" viewBox="0 0 29 28" xmlns="http://www.w3.org/2000/svg">
<path d="M14.5407 10.355C12.5336 10.355 10.8957 11.9929 10.8957 13.9999C10.8957 16.007 12.5336 17.6449 14.5407 17.6449C16.5477 17.6449 18.1856 16.007 18.1856 13.9999C18.1856 11.9929 16.5477 10.355 14.5407 10.355ZM25.4727 13.9999C25.4727 12.4906 25.4864 10.9949 25.4016 9.48821C25.3168 7.73821 24.9176 6.18509 23.6379 4.9054C22.3555 3.62298 20.8051 3.2265 19.0551 3.14173C17.5457 3.05697 16.05 3.07064 14.5434 3.07064C13.034 3.07064 11.5383 3.05697 10.0317 3.14173C8.28168 3.2265 6.72855 3.62572 5.44886 4.9054C4.16644 6.18782 3.76995 7.73821 3.68519 9.48821C3.60042 10.9976 3.61409 12.4933 3.61409 13.9999C3.61409 15.5066 3.60042 17.005 3.68519 18.5116C3.76995 20.2616 4.16917 21.8148 5.44886 23.0945C6.73128 24.3769 8.28168 24.7734 10.0317 24.8581C11.5411 24.9429 13.0368 24.9292 14.5434 24.9292C16.0528 24.9292 17.5485 24.9429 19.0551 24.8581C20.8051 24.7734 22.3582 24.3741 23.6379 23.0945C24.9204 21.812 25.3168 20.2616 25.4016 18.5116C25.4891 17.005 25.4727 15.5093 25.4727 13.9999ZM14.5407 19.6081C11.4371 19.6081 8.93246 17.1034 8.93246 13.9999C8.93246 10.8964 11.4371 8.39173 14.5407 8.39173C17.6442 8.39173 20.1489 10.8964 20.1489 13.9999C20.1489 17.1034 17.6442 19.6081 14.5407 19.6081ZM20.3786 9.47181C19.6539 9.47181 19.0688 8.88665 19.0688 8.16204C19.0688 7.43743 19.6539 6.85228 20.3786 6.85228C21.1032 6.85228 21.6883 7.43743 21.6883 8.16204C21.6885 8.3341 21.6548 8.50452 21.5891 8.66352C21.5233 8.82253 21.4269 8.967 21.3052 9.08867C21.1835 9.21033 21.039 9.3068 20.88 9.37255C20.721 9.43829 20.5506 9.47202 20.3786 9.47181Z"/>
</svg>
