<svg width="29" height="28" viewBox="0 0 29 28" xmlns="http://www.w3.org/2000/svg">
<path d="M25.0405 19.1567V23.282C25.0407 23.5774 24.9288 23.8618 24.7274 24.0779C24.526 24.294 24.2502 24.4257 23.9555 24.4463C23.4457 24.4813 23.0292 24.5 22.7072 24.5C12.3974 24.5 4.04053 16.1432 4.04053 5.83333C4.04053 5.51133 4.05803 5.09483 4.09419 4.585C4.11487 4.29035 4.24654 4.01451 4.46263 3.81314C4.67872 3.61177 4.96315 3.49987 5.25853 3.5H9.38386C9.52857 3.49985 9.66817 3.5535 9.77554 3.65052C9.88292 3.74755 9.95039 3.88101 9.96486 4.025C9.99169 4.29333 10.0162 4.50683 10.0395 4.669C10.2714 6.28708 10.7465 7.8608 11.4489 9.33683C11.5597 9.57017 11.4874 9.849 11.2774 9.99833L8.75969 11.7973C10.2991 15.3842 13.1575 18.2426 16.7444 19.782L18.541 17.269C18.6145 17.1663 18.7216 17.0927 18.8438 17.0609C18.9659 17.0292 19.0954 17.0413 19.2095 17.0952C20.6854 17.7962 22.2587 18.2701 23.8762 18.501C24.0384 18.5243 24.2519 18.55 24.5179 18.5757C24.6616 18.5904 24.7948 18.658 24.8916 18.7653C24.9884 18.8727 25.0419 19.0121 25.0417 19.1567H25.0405Z"/>
</svg>
